<mxfile host="65bd71144e">
    <diagram name="Page-1" id="2cc2dc42-3aac-f2a9-1cec-7a8b7cbee084">
        <mxGraphModel dx="1596" dy="2084" grid="1" gridSize="10" guides="1" tooltips="1" connect="1" arrows="1" fold="1" page="1" pageScale="1" pageWidth="1100" pageHeight="850" background="none" math="0" shadow="0">
            <root>
                <mxCell id="0"/>
                <mxCell id="1" parent="0"/>
                <mxCell id="7026571954dc6520-1" value="" style="strokeWidth=1;shadow=0;dashed=0;align=center;html=1;shape=mxgraph.mockup.containers.browserWindow;rSize=0;strokeColor=#666666;mainText=,;recursiveResize=0;rounded=0;labelBackgroundColor=none;fontFamily=Verdana;fontSize=12" parent="1" vertex="1">
                    <mxGeometry x="310" y="-70" width="1050" height="660" as="geometry"/>
                </mxCell>
                <mxCell id="7026571954dc6520-2" value="Index" style="strokeWidth=1;shadow=0;dashed=0;align=center;html=1;shape=mxgraph.mockup.containers.anchor;fontSize=17;fontColor=#666666;align=left;" parent="7026571954dc6520-1" vertex="1">
                    <mxGeometry x="60" y="12" width="110" height="26" as="geometry"/>
                </mxCell>
                <mxCell id="7026571954dc6520-3" value="https://www.nuestraspropuestas.mx" style="strokeWidth=1;shadow=0;dashed=0;align=center;html=1;shape=mxgraph.mockup.containers.anchor;rSize=0;fontSize=17;fontColor=#666666;align=left;" parent="7026571954dc6520-1" vertex="1">
                    <mxGeometry x="130" y="60" width="250" height="26" as="geometry"/>
                </mxCell>
                <mxCell id="ZSDt88QShG73yht3U2Xj-8" value="" style="rounded=0;whiteSpace=wrap;html=1;" parent="7026571954dc6520-1" vertex="1">
                    <mxGeometry y="110" width="1050" height="30" as="geometry"/>
                </mxCell>
                <mxCell id="ZSDt88QShG73yht3U2Xj-9" value="Email@para.contacto.mx" style="text;html=1;strokeColor=none;fillColor=none;align=center;verticalAlign=middle;whiteSpace=wrap;rounded=0;" parent="7026571954dc6520-1" vertex="1">
                    <mxGeometry x="30" y="115" width="160" height="25" as="geometry"/>
                </mxCell>
                <mxCell id="ZSDt88QShG73yht3U2Xj-12" value="" style="shape=image;html=1;verticalAlign=top;verticalLabelPosition=bottom;labelBackgroundColor=#ffffff;imageAspect=0;aspect=fixed;image=https://cdn0.iconfinder.com/data/icons/typicons-2/24/social-facebook-128.png" parent="7026571954dc6520-1" vertex="1">
                    <mxGeometry x="440" y="110" width="30" height="30" as="geometry"/>
                </mxCell>
                <mxCell id="ZSDt88QShG73yht3U2Xj-13" value="" style="shape=image;html=1;verticalAlign=top;verticalLabelPosition=bottom;labelBackgroundColor=#ffffff;imageAspect=0;aspect=fixed;image=https://cdn3.iconfinder.com/data/icons/picons-social/57/03-twitter-128.png" parent="7026571954dc6520-1" vertex="1">
                    <mxGeometry x="480" y="115" width="20" height="20" as="geometry"/>
                </mxCell>
                <mxCell id="ZSDt88QShG73yht3U2Xj-14" value="" style="rounded=0;whiteSpace=wrap;html=1;" parent="7026571954dc6520-1" vertex="1">
                    <mxGeometry y="140" width="1050" height="60" as="geometry"/>
                </mxCell>
                <mxCell id="ZSDt88QShG73yht3U2Xj-15" value="" style="verticalLabelPosition=bottom;shadow=0;dashed=0;align=center;html=1;verticalAlign=top;strokeWidth=1;shape=mxgraph.mockup.graphics.simpleIcon;strokeColor=#999999;" parent="7026571954dc6520-1" vertex="1">
                    <mxGeometry x="30" y="147.5" width="140" height="45" as="geometry"/>
                </mxCell>
                <mxCell id="ZSDt88QShG73yht3U2Xj-16" value="&lt;font size=&quot;3&quot;&gt;NOSOTROS&lt;/font&gt;" style="text;html=1;strokeColor=none;fillColor=none;align=center;verticalAlign=middle;whiteSpace=wrap;rounded=0;" parent="7026571954dc6520-1" vertex="1">
                    <mxGeometry x="330" y="160" width="110" height="20" as="geometry"/>
                </mxCell>
                <mxCell id="ZSDt88QShG73yht3U2Xj-17" value="&lt;font size=&quot;3&quot;&gt;PROPUESTAS&lt;/font&gt;" style="text;html=1;strokeColor=none;fillColor=none;align=center;verticalAlign=middle;whiteSpace=wrap;rounded=0;" parent="7026571954dc6520-1" vertex="1">
                    <mxGeometry x="470" y="160" width="110" height="20" as="geometry"/>
                </mxCell>
                <mxCell id="ZSDt88QShG73yht3U2Xj-18" value="&lt;font style=&quot;font-size: 14px&quot;&gt;&amp;nbsp; &amp;nbsp; &amp;nbsp;Busca propuestas&lt;/font&gt;" style="strokeWidth=1;html=1;shadow=0;dashed=0;shape=mxgraph.ios.iTextInput;strokeColor=#444444;buttonText=;fontSize=8;whiteSpace=wrap;align=left;" parent="7026571954dc6520-1" vertex="1">
                    <mxGeometry x="680" y="148" width="280" height="42" as="geometry"/>
                </mxCell>
                <mxCell id="ZSDt88QShG73yht3U2Xj-19" value="" style="sketch=0;pointerEvents=1;shadow=0;dashed=0;html=1;strokeColor=none;fillColor=#505050;labelPosition=center;verticalLabelPosition=bottom;verticalAlign=top;outlineConnect=0;align=center;shape=mxgraph.office.concepts.search;" parent="7026571954dc6520-1" vertex="1">
                    <mxGeometry x="910" y="153" width="30" height="32" as="geometry"/>
                </mxCell>
                <mxCell id="ZSDt88QShG73yht3U2Xj-20" value="" style="verticalLabelPosition=bottom;shadow=0;dashed=0;align=center;html=1;verticalAlign=top;strokeWidth=1;shape=mxgraph.mockup.graphics.simpleIcon;strokeColor=#999999;" parent="7026571954dc6520-1" vertex="1">
                    <mxGeometry y="200" width="1050" height="430" as="geometry"/>
                </mxCell>
                <mxCell id="ZSDt88QShG73yht3U2Xj-21" value="&lt;font style=&quot;font-size: 36px&quot;&gt;ANALIZA LAS PROPUESTAS DE TU GOBIERNO&lt;/font&gt;" style="text;html=1;strokeColor=none;fillColor=none;align=center;verticalAlign=middle;whiteSpace=wrap;rounded=0;" parent="7026571954dc6520-1" vertex="1">
                    <mxGeometry x="640" y="310" width="310" height="20" as="geometry"/>
                </mxCell>
                <mxCell id="ZSDt88QShG73yht3U2Xj-22" value="&amp;nbsp;ConÃ³celas" style="rounded=1;align=left;fillColor=#F1F2F4;strokeColor=none;html=1;fontColor=#596780;fontSize=12;spacingLeft=26;" parent="7026571954dc6520-1" vertex="1">
                    <mxGeometry x="740" y="398.5" width="120" height="33" as="geometry"/>
                </mxCell>
                <mxCell id="ZSDt88QShG73yht3U2Xj-27" value="Copyright" style="text;html=1;strokeColor=none;fillColor=none;align=center;verticalAlign=middle;whiteSpace=wrap;rounded=0;" parent="7026571954dc6520-1" vertex="1">
                    <mxGeometry x="445" y="635" width="160" height="25" as="geometry"/>
                </mxCell>
            </root>
        </mxGraphModel>
    </diagram>
</mxfile>